# xmcd CD database file
#
# Track frame offsets:
#	150
#	15195
#	28865
#	49722
#	67822
#	91517
#	108622
#	125835
#	144577
#	161570
#	176202
#	201905
#
# Disc length: 4440 seconds
#
# Revision: 0
# Processed by: cddbd v1.4PL0 Copyright (c) Steve Scherf et al.
# Submitted via: CDex 1.40Release
#
DISCID=9f11560c
DTITLE=Trace Adkins - Comin' On Strong
DYEAR=2003
DGENRE=Country
TTITLE0=Hot Mama
TTITLE1=Comin' On Strong
TTITLE2=Then Came The Night
TTITLE3=I'd Sure Hate To Break Down Here
TTITLE4=Missing You
TTITLE5=One Of Those Nights
TTITLE6=Untamed
TTITLE7=Then I Wake Up
TTITLE8=One Nightstand
TTITLE9=Baby's Gone
TTITLE10=Rough and Ready
TTITLE11=Data Track
EXTD=YEAR: 2003 ID3G: 2
EXTT0=
EXTT1=
EXTT2=
EXTT3=
EXTT4=
EXTT5=
EXTT6=
EXTT7=
EXTT8=
EXTT9=
EXTT10=
EXTT11=
PLAYORDER=
